#N canvas 1268 23 411 300 10;
#X obj 14 68 print received;
#X floatatom 114 97 8 0 0 0 - - -, f 8;
#X obj 114 68 route foo bar;
#X floatatom 174 96 8 0 0 0 - - -, f 8;
#X obj 235 248 dac~;
#X obj 235 225 *~ 0.05;
#X msg 14 233 \; pd dsp 1;
#X msg 82 234 \; pd dsp 0;
#X text 29 270 ON;
#X text 102 271 OFF;
#X floatatom 333 178 5 0 100 0 - - -, f 5;
#X obj 274 204 / 100;
#X obj 235 182 / 10;
#X obj 235 204 osc~;
#X obj 114 36 netreceive -u 5006;
#X text 333 196 Vol.;
#X floatatom 41 178 8 0 0 0 - - -, f 8;
#X floatatom 41 113 8 0 0 0 - - -, f 8;
#X obj 41 156 -;
#X obj 41 133 f;
#X obj 69 133 t;
#X connect 2 0 1 0;
#X connect 2 1 3 0;
#X connect 3 0 18 1;
#X connect 3 0 20 0;
#X connect 3 0 12 0;
#X connect 5 0 4 0;
#X connect 5 0 4 1;
#X connect 10 0 11 0;
#X connect 11 0 5 1;
#X connect 12 0 13 0;
#X connect 13 0 5 0;
#X connect 14 0 0 0;
#X connect 14 0 2 0;
#X connect 17 0 19 0;
#X connect 18 0 16 0;
#X connect 19 0 18 0;
#X connect 20 0 19 0;
