#N canvas 978 52 450 300 10;
#X floatatom 261 107 5 0 0 0 - - -, f 5;
#X obj 71 135 print received;
#X floatatom 174 163 5 0 0 0 - - -, f 5;
#X obj 174 134 route foo bar;
#X obj 174 80 netreceive 5006;
#X floatatom 212 162 5 0 0 0 - - -, f 5;
#X connect 3 0 2 0;
#X connect 3 1 5 0;
#X connect 4 0 1 0;
#X connect 4 0 3 0;
#X connect 4 1 0 0;
